<?xml version="1.0" encoding="UTF-8" standalone="no"?>
<!-- Created with Inkscape (http://www.inkscape.org/) -->
<svg
   xmlns:dc="http://purl.org/dc/elements/1.1/"
   xmlns:cc="http://web.resource.org/cc/"
   xmlns:rdf="http://www.w3.org/1999/02/22-rdf-syntax-ns#"
   xmlns:svg="http://www.w3.org/2000/svg"
   xmlns="http://www.w3.org/2000/svg"
   xmlns:sodipodi="http://sodipodi.sourceforge.net/DTD/sodipodi-0.dtd"
   xmlns:inkscape="http://www.inkscape.org/namespaces/inkscape"
   version="1.0"
   width="936"
   height="647.99902"
   viewBox="0 0 936 647.99902"
   id="svg2468"
   xml:space="preserve"
   sodipodi:version="0.32"
   inkscape:version="0.45"
   sodipodi:docname="Similar_geometric_shapes-done.svg"
   sodipodi:docbase="/Users/user4/Desktop/Daten/wikimedia/todo"
   inkscape:output_extension="org.inkscape.output.svg.inkscape"
   sodipodi:modified="true"><metadata
   id="metadata2738"><rdf:RDF><cc:Work
       rdf:about=""><dc:format>image/svg+xml</dc:format><dc:type
         rdf:resource="http://purl.org/dc/dcmitype/StillImage" /></cc:Work></rdf:RDF></metadata><sodipodi:namedview
   inkscape:window-height="581"
   inkscape:window-width="697"
   inkscape:pageshadow="2"
   inkscape:pageopacity="0.0"
   guidetolerance="10.0"
   gridtolerance="10.0"
   objecttolerance="10.0"
   borderopacity="1.0"
   bordercolor="#666666"
   pagecolor="#ffffff"
   id="base"
   inkscape:zoom="0.58333421"
   inkscape:cx="468"
   inkscape:cy="323.99951"
   inkscape:window-x="20"
   inkscape:window-y="42"
   inkscape:current-layer="svg2468" /><defs
   id="defs2590">
			
		
				
				
				
				
				
				
				
				
				
				
				
				
				
				
				
				
				
				
				
				
				
				
				
				
				
				
				
				
				
				
				
				
				
				
				
				
				
				
				
				
				
				
				
				
				
				
				
				
				
				
				
				
				
				
				
				
				
			</defs>
	
		<path
   d="M 724.40039,12.299805 C 726.10059,11.299805 728,12.399902 729.40039,13.5 C 762.60059,39.699707 795.90039,65.799805 829.10059,91.899902 C 832.10059,93.799805 830.7998,99 827.2998,99.199707 C 781.90039,106.3999 736.5,113.6001 691,120.69971 C 687.90039,121.69971 684.90039,118.2998 686.2998,115.2998 C 698,82.199707 710,49 721.7002,15.899902 C 722.2002,14.5 722.7998,12.899902 724.40039,12.299805 L 724.40039,12.299805 z "
   style="fill:#918200"
   id="path2477" /><path
   d="M 96.5,18.799805 C 118.2002,15.899902 141,20.699707 159.6001,32.399902 C 178.6001,44.199707 193.1001,62.899902 199.80029,84.299805 C 205.80029,103 205.7002,123.69971 199.7002,142.3999 C 193.1001,163 179.2002,181.19971 161,192.8999 C 143.7002,204.2998 122.6001,209.6001 102,208 C 82.5,206.6001 63.5,199 48.399902,186.5 C 31,172.1001 19,151.3999 15.300293,129.1001 C 11.300293,106 16.200195,81.5 28.899902,61.799805 C 43.700195,38.5 69.100098,22.299805 96.5,18.799805 L 96.5,18.799805 z "
   style="fill:#336957"
   id="path2479" /><path
   d="M 696.10059,111.7998 C 706.7002,82.100098 717.2002,52.399902 727.90039,22.699707 C 757.7002,46 787.2998,69.399902 817,92.699707 C 776.7002,99 736.40039,105.3999 696.10059,111.7998 L 696.10059,111.7998 z "
   style="fill:#e3ff86"
   id="path2481" /><path
   d="M 101.30029,26.299805 C 121.1001,24.5 141.6001,29.799805 158,41.100098 C 173.80029,51.699707 185.8999,67.799805 191.8999,85.899902 C 197.3999,102.6001 197.7002,121 192.6001,137.7998 C 186.80029,157.8999 173.30029,175.6001 155.6001,186.69971 C 137.80029,198.1001 115.80029,202.6001 95,199.1001 C 78.5,196.3999 62.800293,188.7998 50.5,177.5 C 35.800293,164.1001 25.800293,145.69971 22.899902,126 C 19.899902,106 24.200195,85 34.800293,67.699707 C 48.800293,44.5 74.200195,28.600098 101.30029,26.299805 L 101.30029,26.299805 z "
   style="fill:#8dc1b1"
   id="path2483" /><path
   d="M 538.40039,46.299805 C 538.7998,46.299805 539.60059,46.100098 540,46 C 564,46 588,46 612,46 C 615.09961,45.799805 617.09961,49.699707 615.40039,52.199707 C 591.5,100 567.59961,147.8999 543.59961,195.69971 C 542.09961,199.5 535.7002,198.19971 536,194 C 536,146.3999 536,98.699707 536,51 C 535.7998,49.199707 536.5,47 538.40039,46.299805 L 538.40039,46.299805 z "
   style="fill:#61252d"
   id="path2485" /><path
   d="M 373.3999,51.600098 C 382.80029,49.699707 392.80029,50.5 401.6001,54.600098 C 413.3999,59.899902 422.6001,70.600098 426,83.100098 C 429.5,96 427.2002,110.5 419.2002,121.19971 C 411,132.69971 397.1001,140 383,139.5 C 371.1001,139.7998 359.30029,134.6001 351,126 C 341.5,116.3999 337.1001,102.19971 339,88.899902 C 341.30029,70.899902 355.7002,55.299805 373.3999,51.600098 L 373.3999,51.600098 z "
   style="fill:#336957"
   id="path2487" /><path
   d="M 544,54 C 564.5,54 585,54 605.5,54 C 585,95 564.5,136 544,177 C 544,136 544,95 544,54 L 544,54 z "
   style="fill:#b09296"
   id="path2489" /><path
   d="M 375.3999,59.5 C 386,57.100098 397.7002,59.899902 406.1001,66.899902 C 417.3999,75.699707 422.30029,91.600098 418.2002,105.2998 C 415.7002,113.8999 409.8999,121.5 402.2002,126.19971 C 392.1001,132.6001 378.7002,133.2998 367.8999,128.2998 C 359.7002,124.5 353.1001,117.6001 349.5,109.3999 C 345.1001,99 345.80029,86.399902 351.7002,76.600098 C 356.80029,67.899902 365.6001,61.600098 375.3999,59.5 L 375.3999,59.5 z "
   style="fill:#8dc1b1"
   id="path2491" /><path
   d="M 259.5,65.799805 C 271,63.399902 283.2002,64 294.30029,67.899902 C 311.8999,73.799805 326.3999,87.699707 333.2002,104.8999 C 338,116.5 338.8999,129.3999 336.7002,141.69971 C 333.2002,160.1001 321.1001,176.69971 304.6001,185.7998 C 291.80029,193 276.3999,195.2998 262,192.8999 C 247.8999,190.6001 234.80029,183.2998 225.2002,172.7998 C 214.80029,161.3999 208.7002,146.2998 208.3999,130.8999 C 207.80029,114.5 213.8999,98 224.8999,85.899902 C 233.8999,75.699707 246.2002,68.600098 259.5,65.799805 L 259.5,65.799805 z "
   style="fill:#336957"
   id="path2493" /><path
   d="M 272.2002,72.399902 C 287.1001,72.100098 301.8999,78 312.5,88.399902 C 323.3999,98.899902 330,113.7998 329.80029,129 C 330.1001,143.8999 323.80029,158.69971 313.2002,169.19971 C 302.7002,179.69971 287.8999,186 273,185.7998 C 258.1001,186 243.3999,179.69971 232.8999,169.1001 C 222.2002,158.3999 215.8999,143.19971 216.3999,128 C 216.6001,113.19971 223,98.799805 233.5,88.600098 C 243.7002,78.5 257.8999,72.5 272.2002,72.399902 L 272.2002,72.399902 z "
   style="fill:#8dc1b1"
   id="path2495" /><path
   d="M 629.2998,78 C 630.7998,77.600098 632.2002,78.600098 633.40039,79.5 C 688.7998,123.1001 744.2998,166.69971 799.7998,210.19971 C 802.2998,211.69971 802.90039,215.5 800.40039,217.19971 C 798.5,218.2998 796.2998,218.2998 794.2002,218.69971 C 719.7998,230.3999 645.40039,242.19971 571,253.8999 C 567.7998,254.8999 564.7998,251.1001 566.40039,248.19971 C 586.10059,192.69971 606,137.2998 625.7998,81.799805 C 626.2998,80.100098 627.2998,78.299805 629.2998,78 L 629.2998,78 z "
   style="fill:#918200"
   id="path2497" /><path
   d="M 631.90039,88.799805 C 662.2002,112.19971 692.10059,136.1001 722.2998,159.69971 C 744.2998,177 766.2002,194.19971 788.2002,211.3999 C 717.5,222.69971 646.7998,233.7998 576.09961,245 C 594.7002,192.8999 613.2998,140.8999 631.90039,88.799805 L 631.90039,88.799805 z "
   style="fill:#e3ff86"
   id="path2499" /><path
   d="M 880.5,89.699707 C 882.90039,88.399902 885.7998,90.299805 886.2998,92.899902 C 898.10059,126 909.90039,159.1001 921.7002,192.2998 C 923.40039,195.2998 920.2998,199.1001 917,198 C 871.60059,190.8999 826.2998,183.69971 780.90039,176.5 C 777.2002,176.2998 775.90039,171.1001 779.10059,169.19971 C 809.5,145.19971 840,121.2998 870.40039,97.399902 C 873.7998,94.899902 876.90039,92 880.5,89.699707 L 880.5,89.699707 z "
   style="fill:#918200"
   id="path2501" /><path
   d="M 791.10059,170 C 820.7998,146.69971 850.5,123.2998 880.2002,100 C 890.90039,129.69971 901.40039,159.3999 912.10059,189.1001 C 871.7002,182.69971 831.40039,176.3999 791.10059,170 L 791.10059,170 z "
   style="fill:#e3ff86"
   id="path2503" /><path
   d="M 448.5,103.7998 C 458.1001,101.69971 468.6001,104.3999 475.90039,111 C 487.7002,121.2998 489.5,140.6001 479.90039,152.8999 C 470.7998,165.5 451.7002,168.8999 438.6001,160.3999 C 427.3999,153.69971 421.80029,139.3999 425,126.7998 C 427.6001,115.3999 437.1001,106.1001 448.5,103.7998 L 448.5,103.7998 z "
   style="fill:#336957"
   id="path2505" /><path
   d="M 450.3999,111.6001 C 457.6001,110.1001 465.3999,112.19971 470.7002,117.2998 C 475.60059,121.69971 478.40039,128.3999 478.10059,135 C 477.90039,142 474.2002,148.6001 468.6001,152.69971 C 462.3999,157.3999 453.7002,158.2998 446.6001,155.3999 C 438.1001,152.1001 431.8999,143.19971 432.2002,134 C 432,123.5 440.1001,113.69971 450.3999,111.6001 L 450.3999,111.6001 z "
   style="fill:#8dc1b1"
   id="path2507" /><path
   d="M 484.40039,163.6001 C 492,162 500.5,164.5 505.60059,170.5 C 513.09961,178.5 512.90039,192.2998 505.2002,200.19971 C 499.2002,206.8999 488.7998,208.8999 480.60059,205.3999 C 472.5,202.19971 466.80029,193.7998 467.2002,185 C 466.80029,175 474.60059,165.5 484.40039,163.6001 L 484.40039,163.6001 z "
   style="fill:#336957"
   id="path2509" /><path
   d="M 485.5,171.6001 C 493.5,169.19971 502.60059,175.6001 503,183.8999 C 504,191.7998 496.90039,199.3999 489,199.1001 C 481.60059,199.2998 474.90039,192.3999 475.2002,185 C 475.10059,178.8999 479.60059,173.19971 485.5,171.6001 L 485.5,171.6001 z "
   style="fill:#8dc1b1"
   id="path2511" /><path
   d="M 359.6001,190.7998 C 370.1001,189.19971 381.5,190.3999 390.5,196.3999 C 404.3999,205 412.30029,220.3999 416.1001,235.7998 C 422.3999,261.5 419.80029,288.5 413.5,313.8999 C 408.30029,334.60059 400,354.49902 389,372.7998 C 379.1001,389.10059 367,404.2998 351.7002,415.7998 C 338.8999,425.2998 323.1001,432.2998 306.8999,430.60059 C 294.6001,429.7002 283.5,422.39941 276.2002,412.7002 C 264.6001,397.39941 260.80029,377.7998 260,358.99902 C 259.30029,329.39941 266.1001,299.8999 277.8999,272.8999 C 286.6001,253.19971 298,234.5 312.80029,218.7998 C 325.5,205.6001 341.2002,194 359.6001,190.7998 L 359.6001,190.7998 z "
   style="fill:#0d6103"
   id="path2513" /><path
   d="M 362.2002,198.2998 C 373.2002,196.5 385,200.2998 392.80029,208.19971 C 401.1001,216.2998 405.6001,227.2998 408.3999,238.3999 C 414.30029,263.6001 411.7002,290.1001 405,314.8999 C 398.80029,337.10059 389.6001,358.49902 376.3999,377.39941 C 367.30029,390.60059 356.30029,402.7998 343,411.89941 C 334.1001,417.89941 323.80029,422.60059 312.8999,423.10059 C 300.7002,423.60059 288.7002,417.10059 281.8999,407.10059 C 271.3999,391.99902 268.3999,373.10059 268,355.10059 C 267.8999,320.8999 278.1001,287.19971 294.6001,257.3999 C 304.6001,239.8999 317.2002,223.6001 333.3999,211.3999 C 342,205.1001 351.7002,199.8999 362.2002,198.2998 L 362.2002,198.2998 z "
   style="fill:#8de082"
   id="path2515" /><path
   d="M 855.40039,209.1001 C 857.40039,207.5 860.90039,208.69971 861.40039,211.2998 C 871.40039,248.3999 881.2998,285.5 891.2998,322.5 C 891.7002,324.39941 892.60059,326.60059 891.2998,328.39941 C 890.10059,330.10059 887.7998,330.2998 886,329.60059 C 848.40039,319.6001 810.90039,309.5 773.40039,299.3999 C 770,298.7998 769.5,294 772.2002,292.19971 C 799.90039,264.5 827.5,236.69971 855.40039,209.1001 L 855.40039,209.1001 z "
   style="fill:#002985"
   id="path2517" /><path
   d="M 782.2002,293.5 C 806.60059,269 831,244.6001 855.5,220.19971 C 864.40039,253.5 873.40039,286.8999 882.2002,320.19971 C 848.90039,311.3999 815.5,302.3999 782.2002,293.5 L 782.2002,293.5 z "
   style="fill:#5c9af5"
   id="path2519" /><path
   d="M 120.6001,232.7998 C 132.3999,231.19971 144.3999,232.19971 156.2002,233.8999 C 175.6001,236.7998 194.7002,241.8999 213,249 C 227.2002,254.6001 241.2002,261.1001 253,271 C 257.2002,274.6001 261.1001,279.19971 261.7002,284.8999 C 262.30029,288.3999 260.5,291.69971 258.2002,294.19971 C 254.80029,297.3999 250.2002,298.7998 245.80029,299.69971 C 237.6001,301 229.2002,301 220.8999,300.5 C 197.7002,298.6001 175,292.7998 153.2002,284.7998 C 138.2002,279 123.3999,272.2998 111,261.8999 C 106.5,258.1001 102.2002,253.1001 102.2002,246.8999 C 101.7002,243.2998 104,240 106.7002,237.69971 C 110.6001,234.6001 115.7002,233.5 120.6001,232.7998 L 120.6001,232.7998 z "
   style="fill:#c25c29"
   id="path2521" /><path
   d="M 505.40039,237.69971 C 507.10059,237.3999 509,236.5 510.60059,237.5 C 512.60059,238.3999 513.2002,241 512.40039,242.8999 C 506.5,261.8999 500.7002,281 494.90039,300.1001 C 494.60059,303.3999 490.40039,305.5 488,303 C 473.90039,288 460,273 446,258 C 443.5,255.8999 444.7002,251.19971 448.1001,250.8999 C 467.2002,246.5 486.2998,242.1001 505.40039,237.69971 L 505.40039,237.69971 z "
   style="fill:#002985"
   id="path2523" /><path
   d="M 122.3999,240.6001 C 132.2002,239.2998 142,240.19971 151.80029,241.2998 C 173.80029,244.3999 195.3999,250.3999 216,258.8999 C 227.3999,263.8999 239,269.2998 248.30029,277.7998 C 250.7002,280.3999 254.7002,283.5 253.6001,287.5 C 250,291.1001 244.6001,291.69971 239.8999,292.5 C 222.7002,293.7998 205.6001,291 188.8999,287.19971 C 170.1001,282.69971 151.5,276.5 134.30029,267.6001 C 126.2002,263.1001 117.6001,258.5 111.8999,251 C 110.7002,249.2998 108.80029,246.6001 110.80029,244.7998 C 114,242 118.3999,241.2998 122.3999,240.6001 L 122.3999,240.6001 z "
   style="fill:#ff9a65"
   id="path2525" /><path
   d="M 742.40039,246.6001 C 745.2998,244.5 749.5,247.5 748.5,251 C 743.7002,296.69971 738.90039,342.39941 734,387.99902 C 733.90039,391.2998 729.60059,392.99902 727.2998,390.7002 C 698.10059,370.60059 668.90039,350.39941 639.7998,330.2002 C 637.10059,328.60059 637.5,324.60059 640.09961,323.19971 C 674.2002,297.6001 708.2998,272.1001 742.40039,246.6001 L 742.40039,246.6001 z "
   style="fill:#918200"
   id="path2527" /><path
   d="M 456.5,257.2998 C 471.90039,253.69971 487.2998,250.19971 502.7998,246.6001 C 498.10059,261.69971 493.5,276.8999 488.90039,292 C 478,280.5 467.2002,268.8999 456.5,257.2998 L 456.5,257.2998 z "
   style="fill:#5c9af5"
   id="path2529" /><path
   d="M 652.2998,258.19971 C 654.90039,257.2998 658.09961,259.1001 658,262 C 658.09961,264.19971 656.2002,265.5 654.40039,266.2998 C 615,286 575.60059,305.69971 536.2002,325.39941 C 534,326.89941 530.7002,325.60059 530.09961,323 C 526.10059,311.2998 522.2002,299.6001 518.40039,287.7998 C 517.10059,285.19971 519,282 521.90039,281.8999 C 565.40039,274 608.7998,266.1001 652.2998,258.19971 L 652.2998,258.19971 z "
   style="fill:#ad0a00"
   id="path2531" /><path
   d="M 649,326.7998 C 679.09961,304.1001 709.2998,281.5 739.60059,258.8999 C 735.40039,299.3999 731.10059,339.99902 726.7002,380.49902 C 700.7998,362.60059 674.90039,344.7002 649,326.7998 L 649,326.7998 z "
   style="fill:#e3ff86"
   id="path2533" /><path
   d="M 527.2998,289.1001 C 560.60059,283.1001 593.7998,277 627.09961,271 C 596.7998,286 566.60059,301.19971 536.40039,316.2998 C 533.2998,307.2998 530.40039,298.19971 527.2998,289.1001 L 527.2998,289.1001 z "
   style="fill:#ffbe9e"
   id="path2535" /><path
   d="M 70.5,286.7998 C 78.200195,284.5 86.5,287.6001 92.200195,292.7998 C 99.800293,299.6001 104.1001,309.2998 106.80029,319 C 111.7002,337.7998 111,358.2002 104.30029,376.49902 C 100.3999,386.7002 93.600098,396.99902 82.899902,400.7998 C 74.700195,403.89941 65.399902,400.60059 59.300293,394.7998 C 51.600098,387.49902 47.399902,377.49902 44.800293,367.49902 C 40.300293,348.60059 41,328.2002 48.200195,310.1001 C 52.399902,300 59.5,289.8999 70.5,286.7998 L 70.5,286.7998 z "
   style="fill:#0d6103"
   id="path2537" /><path
   d="M 73.200195,294.19971 C 80.5,292.6001 86.899902,297.69971 90.800293,303.2998 C 99.800293,316.19971 102.5,332.60059 102,347.99902 C 101.30029,361.7998 97.899902,376.10059 89,386.99902 C 85,391.99902 78.300293,395.7002 71.800293,393.39941 C 63.100098,389.99902 58.399902,381.2002 55,372.99902 C 48.100098,354.2998 48.200195,332.99902 55.300293,314.2998 C 58.800293,306 63.899902,296.69971 73.200195,294.19971 L 73.200195,294.19971 z "
   style="fill:#8de082"
   id="path2539" /><path
   d="M 152.5,298.69971 C 168.2002,295.8999 183.80029,302.7998 196.5,311.5 C 217.5,326.39941 233.80029,347.60059 244,371.2002 C 250.1001,385.60059 254.1001,401.2998 252.2002,416.99902 C 251,426.99902 246.30029,436.99902 238,442.89941 C 228.80029,449.10059 216.8999,449.49902 206.5,446.7002 C 195,443.49902 184.5,437.2998 175.30029,429.7002 C 154.7002,412.7998 139,389.89941 130.6001,364.60059 C 125.8999,349.49902 123.3999,332.49902 129.7002,317.5 C 133.5,307.8999 142.2002,300.2998 152.5,298.69971 L 152.5,298.69971 z "
   style="fill:#0d6103"
   id="path2541" /><path
   d="M 154.30029,306.2998 C 164.30029,304.7998 174.30029,308.2998 183,312.8999 C 198.6001,321.19971 211.5,333.89941 221.7002,348.2002 C 232.80029,363.49902 241.2002,381.10059 243.8999,399.89941 C 245.1001,409.7002 245,420.2998 240.1001,429.10059 C 236.1001,436.2002 228,440.60059 219.8999,440.49902 C 210.1001,440.39941 200.7002,436.60059 192.30029,431.7002 C 171.7002,419.39941 156,400.10059 145.1001,378.99902 C 137.30029,362.7002 131.5,344.10059 135.2002,325.89941 C 137,316.3999 144.3999,307.7998 154.30029,306.2998 L 154.30029,306.2998 z "
   style="fill:#8de082"
   id="path2543" /><path
   d="M 463.5,331.7998 C 477.10059,329.7998 491.2998,334.2998 501.7002,343.2998 C 523.40039,361.7002 528,395.7998 514.10059,420.2002 C 507.90039,431.2998 497.90039,440.39941 485.90039,444.60059 C 472.40039,449.49902 456.8999,447.7002 444.80029,440.2002 C 431,431.7002 421.8999,416.7998 419,400.99902 C 416.30029,386.2998 418.80029,370.49902 426.5,357.49902 C 434.2002,343.99902 448,333.7998 463.5,331.7998 L 463.5,331.7998 z "
   style="fill:#a61f40"
   id="path2545" /><path
   d="M 465.3999,339.60059 C 477.7998,337.99902 490.5,343.10059 499.10059,351.89941 C 517.2002,369.89941 518.90039,401.2002 503.60059,421.49902 C 495.90039,432.10059 483.2002,439.49902 470,439.2998 C 456.5,439.39941 443.7002,431.89941 436,420.99902 C 421.2002,400.89941 422.8999,370.39941 440.3999,352.39941 C 447,345.49902 455.8999,340.7002 465.3999,339.60059 L 465.3999,339.60059 z "
   style="fill:#ff799a"
   id="path2547" /><path
   d="M 638.40039,361.60059 C 640.59961,360.2002 643.90039,360.2998 645,362.89941 C 652.2998,378.39941 659.40039,393.89941 666.59961,409.2998 C 667.90039,411.49902 667.2998,414.7998 664.7002,415.60059 C 631.2998,431.2002 597.7998,446.7998 564.40039,462.39941 C 562.2998,463.60059 559.2002,463.39941 558.2002,460.89941 C 550.90039,445.39941 543.7002,429.89941 536.5,414.39941 C 535.2002,412.39941 535.7998,409.2002 538.2002,408.2998 C 571.59961,392.7002 605,377.10059 638.40039,361.60059 L 638.40039,361.60059 z "
   style="fill:#750075"
   id="path2549" /><path
   d="M 797.2998,363.2002 C 797.7002,363.10059 798.60059,362.89941 799.10059,362.7998 C 829,362.7002 859,362.7998 889,362.7002 C 891.40039,362.2998 893.7002,364.49902 893.2998,366.89941 C 893.2002,396.99902 893.2998,426.99902 893.2002,456.99902 C 893.2998,459.2002 891,460.89941 888.90039,460.7002 C 859.2998,460.7998 829.60059,460.7998 800,460.7002 C 797.2002,460.99902 795,458.7998 795.2998,455.99902 C 795.2002,426.7002 795.2998,397.2998 795.2002,367.99902 C 795.2002,366.2002 795.5,364.10059 797.2998,363.2002 L 797.2998,363.2002 z "
   style="fill:#005252"
   id="path2551" /><path
   d="M 545.2002,413.89941 C 576.7002,399.2998 608,384.60059 639.5,370.10059 C 645.59961,383.2998 651.7002,396.60059 658,409.7998 C 626.60059,424.49902 595.2002,439.10059 563.7002,453.7002 C 557.60059,440.39941 551.40039,427.2002 545.2002,413.89941 L 545.2002,413.89941 z "
   style="fill:#ff86ff"
   id="path2553" /><path
   d="M 803.2998,370.7998 C 830.60059,370.7002 857.90039,370.7002 885.2002,370.7998 C 885.2998,398.10059 885.2998,425.39941 885.2002,452.7002 C 857.90039,452.7998 830.60059,452.7002 803.2998,452.7002 C 803.2998,425.39941 803.2002,398.10059 803.2998,370.7998 L 803.2998,370.7998 z "
   style="fill:#00c1f5"
   id="path2555" /><path
   d="M 99.600098,418.7998 C 117.30029,416.7002 136,418.7002 152,427.10059 C 161,431.89941 169.2002,440.2998 170,450.99902 C 170.30029,461.10059 163.30029,469.99902 155,475.10059 C 142,483.2002 126.2002,485.89941 111.1001,485.99902 C 95.800293,485.60059 80,482.7002 67.200195,473.89941 C 60,468.89941 54.100098,460.89941 54,451.89941 C 54.200195,443.39941 59.399902,435.89941 66,430.99902 C 75.700195,423.7998 87.700195,420.39941 99.600098,418.7998 L 99.600098,418.7998 z "
   style="fill:#0d6103"
   id="path2557" /><path
   d="M 99.5,426.7998 C 116.30029,424.7002 134.2002,426.39941 149.2002,434.89941 C 155,438.49902 161.30029,443.49902 162,450.89941 C 162.7002,458.10059 157.1001,463.89941 151.5,467.60059 C 138.5,476.10059 122.30029,478.7002 106.8999,477.89941 C 93.899902,477.10059 80.600098,473.7998 70.100098,465.89941 C 65.800293,462.60059 61.800293,457.7002 62,451.99902 C 61.800293,446.7998 65.200195,442.2998 69,438.99902 C 77.600098,431.89941 88.600098,428.39941 99.5,426.7998 L 99.5,426.7998 z "
   style="fill:#8de082"
   id="path2559" /><path
   d="M 650.40039,441.2998 C 651.7002,440.2998 653.5,440.89941 655,440.7002 C 674.2998,440.7998 693.7002,440.7002 713,440.7998 C 715.2002,440.7002 716.90039,442.89941 716.7002,444.99902 C 716.7998,464.7002 716.7998,484.39941 716.7002,503.99902 C 717,506.7998 714.7002,508.99902 712,508.7002 C 692.2998,508.7998 672.7002,508.7998 653,508.7002 C 650.90039,508.89941 648.7002,507.2002 648.7998,504.99902 C 648.7002,484.99902 648.7998,464.99902 648.7002,444.99902 C 648.59961,443.49902 649.09961,442.10059 650.40039,441.2998 L 650.40039,441.2998 z "
   style="fill:#005252"
   id="path2561" /><path
   d="M 656.7998,448.7998 C 674.09961,448.7002 691.40039,448.7002 708.7002,448.7998 C 708.7998,466.10059 708.7002,483.39941 708.7002,500.7002 C 691.40039,500.7002 674.09961,500.7998 656.7998,500.7002 C 656.7002,483.39941 656.7002,466.10059 656.7998,448.7998 L 656.7998,448.7998 z "
   style="fill:#00c1f5"
   id="path2563" /><path
   d="M 323.6001,460.7998 C 346,458.99902 368.80029,458.49902 391.1001,462.10059 C 402.1001,464.10059 413.7002,467.10059 421.80029,475.2002 C 425.30029,478.99902 428.1001,483.7998 427.8999,489.10059 C 428,497.7998 423.30029,505.60059 417.80029,511.99902 C 406.1001,524.89941 391.2002,534.39941 376.2002,543.2002 C 343.5,561.60059 308.30029,575.10059 272.6001,586.39941 C 228.80029,599.7998 183.80029,609.7998 138.1001,614.10059 C 114.2002,616.2002 89.800293,616.99902 66,612.7998 C 54.300293,610.49902 41.600098,606.7998 34.300293,596.7002 C 29.700195,590.49902 29.899902,581.89941 33.100098,575.10059 C 37.700195,565.39941 45.800293,557.7998 54,550.99902 C 70.600098,537.7998 89.5,527.7002 108.6001,518.60059 C 144.1001,501.99902 181.30029,489.39941 219.1001,479.49902 C 253.3999,470.60059 288.30029,463.89941 323.6001,460.7998 L 323.6001,460.7998 z "
   style="fill:#c25c29"
   id="path2565" /><path
   d="M 330.30029,468.2998 C 354.2002,466.99902 378.80029,465.99902 401.8999,473.10059 C 408.3999,475.49902 416,478.2998 419.1001,484.99902 C 421.8999,490.89941 418.6001,497.2998 415.1001,502.10059 C 406.8999,513.2998 395.5,521.60059 384,529.10059 C 354.1001,547.89941 321.2002,561.39941 287.8999,572.89941 C 248.8999,586.10059 208.80029,596.10059 168.1001,602.39941 C 142.2002,606.2998 116,608.60059 89.800293,607.60059 C 76.700195,606.7002 63.300293,605.10059 51.100098,599.89941 C 46.200195,597.60059 40.800293,594.49902 39.200195,588.89941 C 37.200195,582.89941 40.800293,576.99902 44.300293,572.2998 C 53.100098,560.7002 65.200195,552.10059 77.399902,544.39941 C 106.30029,526.7998 137.80029,513.7998 169.7002,502.7002 C 221.7002,485.2002 275.5,472.60059 330.30029,468.2998 L 330.30029,468.2998 z "
   style="fill:#ff9a65"
   id="path2567" /><path
   d="M 743.5,489.49902 C 744.60059,488.2998 746.5,488.89941 748,488.7002 C 791.40039,488.7998 834.7998,488.7002 878.10059,488.7998 C 880.40039,488.39941 882.2002,490.7998 882,492.89941 C 882,508.99902 882.10059,525.10059 881.90039,541.10059 C 882,543.60059 879.2002,544.99902 877.10059,544.7998 C 833.7002,544.7002 790.2998,544.7002 746.90039,544.7998 C 744.7002,544.99902 742,543.60059 742,541.10059 C 741.90039,525.7002 742.10059,510.2998 742,494.99902 C 742,493.10059 741.7002,490.7998 743.5,489.49902 L 743.5,489.49902 z "
   id="path2569" /><path
   d="M 568.2998,494.39941 C 569.7998,493.7998 571.40039,493.99902 573,493.99902 C 588,493.99902 603,493.89941 618.09961,493.99902 C 620.2002,493.89941 622.10059,495.89941 622,497.99902 C 622,529.99902 622,561.99902 622,593.99902 C 622.10059,596.10059 620.2002,598.10059 618,597.99902 C 602,597.99902 586,597.99902 570,597.99902 C 567.7998,598.10059 565.90039,596.2002 566,593.99902 C 566,562.2998 566,530.60059 566,498.89941 C 565.7998,497.10059 566.5,495.10059 568.2998,494.39941 L 568.2998,494.39941 z "
   style="fill:#591f00"
   id="path2571" /><path
   d="M 750,496.7998 C 791.2998,496.7002 832.7002,496.7002 874,496.7998 C 874,510.10059 874,523.39941 874,536.7998 C 832.7002,536.7002 791.2998,536.7002 750,536.7998 C 750,523.39941 750,510.10059 750,496.7998 L 750,496.7998 z "
   style="fill:#808080"
   id="path2573" /><path
   d="M 574,501.99902 C 587.2998,501.99902 600.7002,501.99902 614,501.99902 C 614,531.2998 614,560.7002 614,589.99902 C 600.7002,589.99902 587.2998,589.99902 574,589.99902 C 574,560.7002 574,531.2998 574,501.99902 L 574,501.99902 z "
   style="fill:#d2a980"
   id="path2575" /><path
   d="M 481.5,515.60059 C 483.10059,514.89941 485,515.39941 486.10059,516.7002 C 500.10059,530.7998 514.2002,544.7998 528.2002,558.7998 C 530.5,560.60059 529.5,563.89941 527.60059,565.49902 C 513.90039,579.2002 500.2002,592.89941 486.5,606.60059 C 484.90039,608.49902 481.7998,608.89941 480.10059,606.89941 C 466.1001,592.99902 452.1001,578.99902 438.1001,564.89941 C 436,563.2998 436.30029,559.99902 438.30029,558.2998 C 451.80029,544.7998 465.30029,531.2998 478.7998,517.7998 C 479.60059,516.99902 480.40039,516.10059 481.5,515.60059 L 481.5,515.60059 z "
   style="fill:#005252"
   id="path2577" /><path
   d="M 446.3999,561.7002 C 458.6001,549.49902 470.90039,537.2002 483.10059,524.99902 C 495.40039,537.2998 507.60059,549.49902 519.90039,561.7002 C 507.60059,573.99902 495.40039,586.2002 483.10059,598.49902 C 470.90039,586.2998 458.6001,573.99902 446.3999,561.7002 L 446.3999,561.7002 z "
   style="fill:#00c1f5"
   id="path2579" /><path
   d="M 372.30029,565.2998 C 387,562.10059 402.5,570.60059 409.1001,583.7998 C 413.8999,592.99902 414.30029,604.7998 408.80029,613.7998 C 403.8999,621.99902 394.5,627.10059 385,626.7998 C 370.6001,626.99902 357.30029,616.89941 352.5,603.49902 C 349.8999,595.7998 349.8999,586.99902 353.6001,579.60059 C 357.2002,572.2998 364.30029,566.89941 372.30029,565.2998 L 372.30029,565.2998 z "
   style="fill:#a61f40"
   id="path2581" /><path
   d="M 682.40039,567.49902 C 694.90039,566.99902 707.5,567.39941 720,567.2002 C 745,567.2998 770,567.2002 795.10059,567.2998 C 797.10059,567.10059 799.2998,568.7998 799.2002,570.99902 C 799.2998,588.39941 799.2002,605.7002 799.2002,623.10059 C 799.7002,625.39941 797.40039,627.7002 795.10059,627.2002 C 757.7002,627.2002 720.40039,627.2998 683,627.2002 C 680.7998,627.2998 679.09961,625.10059 679.2998,622.99902 C 679.2002,606.2998 679.2998,589.60059 679.2002,572.99902 C 679.09961,570.7002 679.7002,567.7002 682.40039,567.49902 L 682.40039,567.49902 z "
   style="fill:#750075"
   id="path2583" /><path
   d="M 372.30029,573.60059 C 384.1001,570.10059 396.8999,577.2998 402.1001,587.89941 C 406.1001,595.39941 405.8999,605.49902 400.1001,612.10059 C 396.2002,616.7002 390,619.10059 383.8999,618.7998 C 370,618.2002 357.80029,604.99902 358.80029,590.99902 C 359.1001,583.10059 364.7002,575.7998 372.30029,573.60059 L 372.30029,573.60059 z "
   style="fill:#ff799a"
   id="path2585" /><path
   d="M 687.2998,575.2998 C 721.90039,575.2002 756.60059,575.2002 791.2002,575.2998 C 791.2998,589.89941 791.2998,604.60059 791.2002,619.2002 C 756.60059,619.2998 721.90039,619.2998 687.2998,619.2002 C 687.2002,604.60059 687.2002,589.89941 687.2998,575.2998 L 687.2998,575.2998 z "
   style="fill:#ff86ff"
   id="path2587" />
	</svg>